<?xml version="1.0" encoding="UTF-8"?>
<svg xmlns="http://www.w3.org/2000/svg" width="70" height="44" viewBox="0 0 70 44" fill="none">
  <g clip-path="url(#clip0_2832_803)">
    <path d="M65.5276 5.40847C65.5276 5.45977 65.5276 5.5239 65.5145 5.56238C65.4489 6.06259 65.4489 6.5628 65.4882 7.07584C65.5145 7.2041 65.5407 7.33236 65.6457 7.43497C65.8162 7.62735 66.0785 7.58888 66.1835 7.35801C66.236 7.24258 66.236 7.12714 66.2097 7.01171C66.0785 6.52432 66.0523 6.01129 66.0392 5.51107C66.0392 5.48542 66.0392 5.44694 66.0392 5.40847C66.1835 5.39564 66.3147 5.38281 66.4327 5.38281C66.5246 5.36999 66.6033 5.35716 66.6689 5.31868C66.8656 5.21608 66.8656 4.99804 66.6557 4.89543C66.577 4.85695 66.4721 4.84412 66.3803 4.84412C66.0523 4.85695 65.7244 4.85695 65.3964 4.85695C65.2784 4.85695 65.1603 4.86978 65.0422 4.8826C64.9766 4.89543 64.8979 4.89543 64.8455 4.93391C64.7536 4.97238 64.7012 5.03651 64.7012 5.12629C64.7143 5.21608 64.7536 5.26738 64.8455 5.30586C64.8979 5.34434 64.9635 5.35716 65.0291 5.35716C65.1865 5.36999 65.3571 5.39564 65.5276 5.40847ZM69.135 5.99846C69.135 6.01129 69.1481 6.02411 69.1481 6.02411C69.2006 6.37041 69.2531 6.70389 69.2924 7.03736C69.3056 7.15279 69.3187 7.2554 69.3974 7.34518C69.5679 7.56322 69.8303 7.53757 69.9483 7.30671C70.0008 7.19127 70.0139 7.07584 69.9877 6.94758C69.909 6.5628 69.8696 6.17802 69.7909 5.80607C69.7384 5.5752 69.6729 5.35716 69.6073 5.15195C69.5679 5.02369 69.4761 4.9339 69.3187 4.92108C69.1613 4.89543 69.0432 4.97238 68.9776 5.08782C68.8989 5.19042 68.8333 5.29303 68.7808 5.40847C68.689 5.61368 68.6103 5.8189 68.5054 6.01129C68.4922 6.06259 68.4791 6.10107 68.4529 6.13954C68.4398 6.11389 68.4267 6.10107 68.4267 6.10107C68.2561 5.78042 68.0987 5.45977 67.9282 5.15195C67.9019 5.12629 67.8888 5.10064 67.8757 5.07499C67.797 4.95956 67.7052 4.89543 67.5609 4.89543C67.4297 4.90825 67.3247 4.98521 67.2592 5.10064C67.2329 5.15195 67.2329 5.19042 67.2198 5.24173C67.1673 5.65216 67.1017 6.06259 67.0493 6.47302C67.023 6.70389 67.0099 6.93475 67.0099 7.16562C66.9968 7.21692 67.0099 7.28105 67.0361 7.33236C67.0624 7.43496 67.1411 7.4991 67.246 7.51192C67.3772 7.52475 67.469 7.48627 67.5084 7.38366C67.5477 7.30671 67.5609 7.24258 67.574 7.17845C67.6265 6.94758 67.6658 6.72954 67.7052 6.5115C67.7314 6.38324 67.7445 6.28063 67.7839 6.13954C67.8101 6.19085 67.8363 6.22933 67.8626 6.2678C67.9806 6.42172 68.0987 6.57563 68.243 6.70389C68.3873 6.80649 68.5054 6.79367 68.6234 6.67823C68.6497 6.65258 68.6628 6.63976 68.689 6.6141C68.8071 6.43454 68.9514 6.25498 69.0694 6.07541C69.0957 6.04976 69.1088 6.02411 69.135 5.99846Z" fill="white" fill-opacity="0.75"></path>
    <path d="M38.9086 5.66053C38.8174 5.90428 38.8 6.07989 38.8421 6.22585C38.8886 6.42433 39.0093 6.48931 39.1731 6.43883C40.7139 6.0663 44.0926 7.1237 45.3435 7.41841C45.6385 7.48029 45.8785 7.10794 45.6772 6.7741C45.3834 6.4508 42.0062 5.06663 40.7176 4.99116C40.2125 4.96325 39.3095 4.83661 38.9086 5.66053Z" fill="white" fill-opacity="0.75"></path>
    <path d="M52.1135 1.17977C52.2777 1.27244 52.3695 1.36084 52.4148 1.45961C52.4823 1.58917 52.4467 1.67881 52.3333 1.72455C51.3148 2.21057 49.9595 4.30298 49.4124 5.02463C49.2798 5.19064 48.9739 5.09417 48.9277 4.82117C48.9372 4.51249 50.1386 2.24176 50.8091 1.62329C51.0726 1.38182 51.5079 0.908026 52.1135 1.17977Z" fill="white" fill-opacity="0.75"></path>
    <path d="M44.0017 0.149796C44.199 0.00441888 44.404 -0.0465256 44.5087 0.0479512C46.0454 1.3329 46.8603 3.36773 47.3649 5.23057C47.3839 5.27397 47.3851 5.33625 47.3699 5.40122C47.3636 5.45675 47.3221 5.51541 47.2562 5.5608C47.1858 5.61091 47.1252 5.62617 47.0967 5.58299C46.4232 4.68732 42.5765 1.20242 44.0017 0.149796Z" fill="white" fill-opacity="0.75"></path>
    <path d="M11.461 22.4277C11.8293 22.1596 12.2297 21.9364 12.6534 21.7632C13.0967 21.6393 13.5692 21.6598 13.9995 21.8218C14.4297 21.9838 14.7944 22.2783 15.0382 22.6609C15.2563 23.0425 15.3416 23.4831 15.2814 23.9163C15.2212 24.3494 15.0187 24.7517 14.7043 25.0626C14.4606 25.3146 14.1839 25.5341 13.8816 25.7155C12.5342 26.5666 11.1748 27.371 9.81547 28.2221C9.53732 28.4351 9.24225 28.6262 8.93308 28.7934C8.46281 29.0227 7.92537 29.0841 7.41368 28.967C6.902 28.85 6.44826 28.5617 6.13092 28.1522C5.89369 27.8622 5.69348 27.5451 5.53471 27.2078C4.24691 24.5613 2.91142 21.9264 1.67131 19.2332C1.09895 18.0674 0.633913 16.7266 0.180798 15.4325C-0.0152406 15.0565 -0.0535225 14.6206 0.0741037 14.2174C0.20173 13.8142 0.485195 13.4756 0.864201 13.2736C1.24321 13.0716 1.68785 13.0222 2.10357 13.1358C2.51929 13.2494 2.87329 13.5171 3.09027 13.8819C3.75722 14.7485 4.34761 15.669 4.85504 16.6334C6.14284 18.9651 7.37103 21.2968 8.61113 23.5586C8.68334 23.6836 8.76296 23.8042 8.84961 23.92C9.783 23.5363 10.6609 23.0346 11.461 22.4277Z" fill="white" fill-opacity="0.75"></path>
    <path d="M24.7756 21.6142C21.8304 24.9835 16.8938 24.1324 14.4136 19.7954C12.6488 16.7175 12.3388 11.6343 16.1784 8.42819C16.9983 7.75696 17.9787 7.29971 19.0282 7.09909C20.315 6.91872 21.6272 7.14068 22.7772 7.73326C23.9272 8.32584 24.8562 9.2587 25.4315 10.3985C27.5301 14.1293 27.232 18.886 24.7756 21.6142ZM23.5832 13.7562C23.2703 12.8394 22.6426 12.0567 21.8065 11.541C21.3334 11.2113 20.7585 11.051 20.1787 11.0871C19.5988 11.1232 19.0494 11.3535 18.6228 11.7392C16.9177 13.2199 16.5599 16.7292 17.8 18.8161C17.9581 19.1564 18.1902 19.4588 18.4803 19.7022C18.7704 19.9456 19.1114 20.1241 19.4794 20.2251C19.8474 20.3262 20.2335 20.3474 20.6108 20.2873C20.9881 20.2271 21.3473 20.0871 21.6635 19.877C22.5878 19.1763 23.2659 18.2115 23.6035 17.1167C23.9412 16.0218 23.9216 14.8513 23.5475 13.7679L23.5832 13.7562Z" fill="white" fill-opacity="0.75"></path>
    <path d="M36.7949 15.2252C36.4934 15.2886 36.1819 15.2924 35.8788 15.2363C35.5758 15.1802 35.2872 15.0655 35.0302 14.8988C34.8053 14.773 34.6117 14.6001 34.4633 14.3924C34.315 14.1847 34.2156 13.9475 34.1723 13.6977C34.1289 13.448 34.1428 13.192 34.2127 12.9481C34.2827 12.7042 34.4072 12.4785 34.5771 12.2872C34.8731 11.9028 35.2933 11.6276 35.7695 11.5061C37.0128 11.1533 38.2927 10.9382 39.5852 10.8649C39.8692 10.8326 40.1569 10.8561 40.4314 10.934C40.706 11.012 40.9618 11.1427 41.184 11.3187C41.4061 11.4946 41.5901 11.7122 41.7251 11.9586C41.86 12.205 41.9433 12.4753 41.97 12.7536C42.3426 14.1206 42.3834 15.5539 42.0892 16.9391C41.0161 21.416 37.3196 22.9549 33.17 21.5209C32.0052 21.1375 30.9839 20.4231 30.2367 19.469C29.2401 18.32 28.5335 16.9583 28.1738 15.4934C27.8824 14.1889 27.9143 12.8353 28.267 11.5454C28.6196 10.2555 29.2827 9.06676 30.2009 8.07846C31.0723 7.00429 32.2033 6.15892 33.492 5.61847C34.3063 5.17962 35.2592 5.05484 36.163 5.26871C36.368 5.32419 36.5541 5.43229 36.702 5.5818C36.8499 5.73132 36.9542 5.91679 37.0041 6.119C37.054 6.3212 37.0476 6.53277 36.9857 6.73177C36.9237 6.93076 36.8085 7.10993 36.6519 7.25069C36.3541 7.51424 36.0306 7.74854 35.686 7.95021C34.6259 8.61028 33.7034 9.46083 32.9673 10.4568C32.4848 11.1013 32.1525 11.8414 31.9939 12.6249C31.8352 13.4084 31.8541 14.2164 32.0492 14.9921C32.3196 16.0497 32.9197 16.999 33.7662 17.7085C36.3895 20.0403 39.7998 17.7901 39.2036 14.6073C38.3332 14.8172 37.57 15.0387 36.7949 15.2252Z" fill="white" fill-opacity="0.75"></path>
    <path d="M52.8215 21.8007C48.9462 24.1325 44.5343 21.8007 43.5684 16.9041C42.8649 13.4065 44.2004 8.50979 48.8747 6.6444C49.8692 6.25605 50.9479 6.1197 52.0107 6.248C53.2876 6.47655 54.459 7.09118 55.3596 8.00525C56.2602 8.91931 56.8448 10.0867 57.0307 11.3429C57.8177 15.505 56.0291 19.947 52.8215 21.8007ZM54.169 13.9544C54.1678 12.9859 53.8174 12.0487 53.1793 11.3079C52.8382 10.8497 52.3451 10.5214 51.7841 10.3789C51.223 10.2365 50.6289 10.2887 50.1028 10.5268C48.0042 11.4128 46.5256 14.6306 47.0622 16.9974C47.1032 17.3688 47.2266 17.727 47.4239 18.0469C47.6212 18.3668 47.8876 18.6407 48.2045 18.8495C48.5213 19.0582 48.881 19.1968 49.2583 19.2555C49.6357 19.3141 50.0216 19.2915 50.389 19.1892C51.4983 18.8103 52.4588 18.1022 53.1364 17.1637C53.8141 16.2252 54.1751 15.1032 54.169 13.9544Z" fill="white" fill-opacity="0.75"></path>
    <path d="M60.9503 22.7802C60.8918 23.2069 60.6624 23.5934 60.3124 23.8547C59.9624 24.1159 59.5206 24.2306 59.0842 24.1734C58.6478 24.1162 58.2525 23.8918 57.9853 23.5496C57.718 23.2075 57.6008 22.7755 57.6593 22.3488C57.7178 21.9221 57.9473 21.5356 58.2972 21.2743C58.6472 21.013 59.089 20.8984 59.5254 20.9556C59.9618 21.0128 60.3571 21.2371 60.6244 21.5793C60.8916 21.9215 61.0089 22.3535 60.9503 22.7802ZM59.9129 7.05253C60.1397 6.71388 60.4724 6.45598 60.8614 6.31731C61.2503 6.17864 61.6747 6.16662 62.0712 6.28305C62.4743 6.38166 62.8304 6.61267 63.0801 6.9374C63.3297 7.26214 63.4576 7.66088 63.4425 8.06684C63.3899 8.71801 63.2903 9.36473 63.1444 10.0022C62.7509 12.1591 62.3693 14.3159 61.952 16.4495C61.7612 17.3006 61.5108 18.1167 61.2365 18.9794C61.1411 19.2491 60.9817 19.4928 60.7715 19.6906C60.6408 19.8394 60.4739 19.9535 60.2861 20.0224C60.0983 20.0914 59.8958 20.1129 59.6973 20.085C59.4988 20.0571 59.3106 19.9807 59.1503 19.8629C58.99 19.745 58.8627 19.5895 58.7802 19.4108C58.6384 19.0902 58.5614 18.7457 58.5536 18.3965C58.5536 16.9508 58.5536 15.4935 58.649 14.0361C58.8111 11.9563 59.1299 9.89093 59.6029 7.85697C59.6586 7.58447 59.7635 7.32388 59.9129 7.0875V7.05253Z" fill="white" fill-opacity="0.75"></path>
    <path fill-rule="evenodd" clip-rule="evenodd" d="M6.42312 32.1488C6.28233 32.4561 6.24372 32.7987 6.31252 33.1284C6.35829 33.563 6.45882 33.9905 6.61182 34.4011C6.80284 34.9039 7.01659 35.4011 7.28015 36.0139C7.34076 36.1549 7.4041 36.3021 7.47038 36.457C7.8258 37.2872 8.27176 38.3482 8.86661 39.8837C9.03498 40.3199 9.18449 40.7597 9.33505 41.2025C9.39587 41.3814 9.45691 41.5609 9.51939 41.7408C9.74335 42.3804 10.1287 42.955 10.6395 43.4104C10.8564 43.6607 11.1441 43.8431 11.4667 43.9343C11.7956 44.0273 12.1454 44.0214 12.4708 43.9174C12.7962 43.8133 13.082 43.6159 13.2911 43.3508C13.4961 43.0909 13.618 42.7777 13.6417 42.4505C13.7747 41.8131 13.7293 41.1522 13.5101 40.5377C13.1622 39.5174 12.7659 38.4956 12.3089 37.4962L12.3068 37.4918C11.555 35.9282 10.7908 34.3754 9.99045 32.822L9.98446 32.8111C9.75016 32.4064 9.44567 32.0446 9.08467 31.742C8.85031 31.4719 8.52704 31.2897 8.17004 31.2269C7.80543 31.1628 7.42939 31.2274 7.10905 31.4093C6.80601 31.5785 6.56579 31.8374 6.42312 32.1488Z" fill="white" fill-opacity="0.75"></path>
    <path fill-rule="evenodd" clip-rule="evenodd" d="M17.9064 28.2986C16.7276 28.0001 15.4965 27.9566 14.2989 28.1712C13.3713 28.2605 12.459 28.4697 11.8255 28.8841C11.5033 29.095 11.2428 29.3658 11.0979 29.71C10.9522 30.0561 10.9336 30.4519 11.053 30.8929C11.271 31.7007 11.5541 32.4861 11.8362 33.269L11.8819 33.3958L11.883 33.3986C12.7324 35.673 13.5899 37.9397 14.4552 40.1986C14.5561 40.5546 14.6988 40.898 14.8804 41.2219L14.8838 41.2279C15.1237 41.6303 15.4314 41.9902 15.7939 42.2925C15.9752 42.4587 16.1994 42.5737 16.4425 42.6251C16.688 42.6769 16.9433 42.6619 17.1806 42.5815C17.418 42.5012 17.6282 42.3587 17.7884 42.1695C17.946 41.9834 18.0492 41.7592 18.0871 41.5206C18.2435 40.8724 18.1934 40.1929 17.9434 39.5733C17.8654 39.3648 17.8042 39.1517 17.7397 38.9274C17.7182 38.8526 17.6964 38.7765 17.6734 38.699C19.6541 37.942 21.7616 36.9241 22.5027 34.5561C22.7929 33.7378 22.8171 32.8517 22.5719 32.0193C22.3265 31.186 21.823 30.4474 21.1308 29.9052C20.1887 29.1462 19.0882 28.5978 17.9064 28.2986ZM14.6389 31.2031C14.6779 31.1921 14.7172 31.1819 14.7566 31.1724C16.0461 30.9742 17.3654 31.2383 18.4716 31.9159C18.9591 32.2474 19.1588 32.6157 19.1931 32.9701C19.2285 33.335 19.0928 33.7304 18.8202 34.1105C18.3051 34.8285 17.3651 35.4032 16.516 35.5103C15.897 34.1165 15.2684 32.6663 14.6389 31.2031Z" fill="white" fill-opacity="0.75"></path>
    <path d="M25.7637 25.7473C27.1675 25.1134 28.9064 25.0039 30.2671 25.4496C30.6098 25.5472 30.9071 25.7583 31.1082 26.0468C31.308 26.3335 31.4002 26.679 31.3694 27.0244C31.3674 27.2486 31.3111 27.4692 31.2052 27.6682C31.0974 27.8708 30.9413 28.045 30.7501 28.1762C30.5589 28.3073 30.3382 28.3916 30.1067 28.4217C29.8751 28.4519 29.6396 28.4271 29.4199 28.3494L29.4032 28.3435L29.3875 28.3354C29.2751 28.2779 29.1557 28.2346 29.0322 28.2064L29.0244 28.2047C28.0672 27.9561 27.1643 28.368 26.8345 28.8741C26.6772 29.1154 26.6577 29.359 26.7887 29.5806C26.929 29.8179 27.2731 30.0842 27.9694 30.274C28.1609 30.3254 28.3572 30.375 28.5563 30.4254C29.1069 30.5648 29.6791 30.7096 30.2324 30.9103L30.2345 30.9111C32.7871 31.8607 33.7376 33.8274 33.4122 35.6772C33.0903 37.5065 31.5278 39.1713 29.1781 39.564C28.3231 39.7493 27.4333 39.7132 26.5968 39.4593C25.7582 39.2046 25.0023 38.7399 24.4042 38.1111L24.3886 38.0947C24.1998 37.8578 24.0728 37.5795 24.0165 37.2842C23.9647 37.0177 23.992 36.7423 24.095 36.4904C24.1974 36.24 24.3706 36.0233 24.5941 35.8654C24.8302 35.6864 25.1148 35.579 25.4127 35.5566C25.7096 35.5343 26.0067 35.5974 26.2674 35.738C26.5278 35.861 26.77 36.0179 26.9874 36.2045L26.9915 36.2079C27.3761 36.5518 27.8414 36.6414 28.2876 36.5584C28.7403 36.4742 29.166 36.2123 29.4398 35.8648C29.7118 35.5195 29.821 35.1093 29.6914 34.7111C29.561 34.31 29.1689 33.8606 28.3074 33.4849C28.0822 33.3914 27.8487 33.316 27.6058 33.2426C27.5403 33.2228 27.4737 33.2031 27.4063 33.1831C27.2267 33.1298 27.0419 33.0749 26.8607 33.0144C26.7359 32.9728 26.6121 32.9334 26.4895 32.8943C26.1544 32.7876 25.8277 32.6836 25.5133 32.5441C24.829 32.3163 24.2378 31.8789 23.8277 31.2966C23.4159 30.712 23.2087 30.0129 23.2369 29.3037C23.2391 27.5754 24.3524 26.3847 25.7637 25.7473Z" fill="white" fill-opacity="0.75"></path>
    <path d="M43.5612 25.5632C43.289 25.4332 42.988 25.3715 42.6854 25.3836C42.3827 25.3958 42.0879 25.4814 41.8276 25.6329C41.5689 25.7833 41.3523 25.9939 41.1971 26.246C41.0548 26.4583 40.9563 26.6957 40.9072 26.945C40.8581 27.1941 40.8593 27.4501 40.9106 27.6986C40.9613 28.018 41.0175 28.3286 41.073 28.6349C41.1649 29.1418 41.2543 29.6373 41.3133 30.1425L41.3155 30.1553C41.4498 30.9476 41.5201 31.7489 41.5264 32.5519L41.527 32.5633C41.5729 33.4305 41.2707 34.2808 40.6852 34.9338L40.6759 34.9454C40.4854 35.1841 40.2307 35.3663 39.9402 35.4716C39.6498 35.5769 39.3352 35.6011 39.0315 35.5415C38.7278 35.4819 38.4471 35.3409 38.2207 35.1342C37.9943 34.9275 37.831 34.6625 37.7495 34.3704C37.5755 33.7547 37.4748 33.1214 37.4492 32.4832L37.7464 27.8569C37.7508 27.7965 37.7558 27.7345 37.7609 27.6719C37.7722 27.5314 37.7838 27.3883 37.7886 27.2548C37.7956 27.0584 37.7896 26.8564 37.7428 26.6652C37.6949 26.4698 37.6038 26.2839 37.4422 26.1256C37.2822 25.9689 37.0662 25.8533 36.7944 25.7746C36.3029 25.6355 35.8873 25.6399 35.541 25.7836C35.1945 25.9273 34.9571 26.1941 34.7891 26.5023C34.6224 26.8079 34.5153 27.1697 34.4343 27.5321C34.3742 27.801 34.3259 28.0833 34.28 28.352C34.2641 28.4446 34.2486 28.5355 34.2329 28.6238L34.2325 28.6264C33.9869 30.1 33.9138 31.5962 34.0146 33.086C34.0334 33.8911 34.2051 34.6858 34.5211 35.4295C34.8776 36.3891 35.5233 37.2205 36.373 37.814C37.2245 38.4087 38.2406 38.7364 39.2868 38.7537C40.333 38.771 41.3599 38.4771 42.2315 37.911C43.1017 37.3457 43.7761 36.5355 44.1655 35.5876C44.7102 34.3801 44.966 33.0669 44.9132 31.7481C44.8812 30.7853 44.8276 29.8151 44.7743 28.8498C44.7481 28.3763 44.722 27.9038 44.6986 27.4342C44.6868 26.9633 44.528 26.5072 44.2434 26.1271C44.0673 25.8868 43.8329 25.693 43.5612 25.5632Z" fill="white" fill-opacity="0.75"></path>
    <path d="M53.197 32.8173C53.1694 32.8516 53.1403 32.8871 53.1099 32.924C52.8885 31.6752 52.6833 30.4268 52.4778 29.1765C52.4041 28.7279 52.33 28.2774 52.2555 27.8282L52.2471 27.7781L52.2199 27.7348C52.1686 27.6533 52.1635 27.5734 52.1635 27.403V27.3833L52.1604 27.3638C52.1048 27.0119 51.942 26.6844 51.6933 26.4242C51.4453 26.1647 51.1232 25.9841 50.7689 25.9057C50.4152 25.8204 50.0435 25.8392 49.7006 25.9598C49.3586 26.0801 49.0605 26.2963 48.8435 26.5813C48.6631 26.8 48.5152 27.0426 48.4044 27.3018C48.1529 27.8602 47.8992 28.42 47.6448 28.9813L47.6404 28.991C47.0053 30.3923 46.3659 31.803 45.7451 33.2248L45.7432 33.2294C45.3621 34.1513 45.0475 35.1227 44.734 36.0911C44.6714 36.2844 44.6088 36.4776 44.5457 36.6703C44.4325 36.9759 44.383 37.3005 44.4 37.625C44.3794 37.9155 44.4505 38.2053 44.6039 38.4552C44.7603 38.7102 44.9946 38.9108 45.2737 39.0289C45.5695 39.1557 45.9002 39.1826 46.2135 39.1054C46.5261 39.0283 46.8037 38.8519 47.0026 38.6039C47.2566 38.2984 47.4751 37.9652 47.6533 37.6122C48.1792 36.5604 48.6818 35.4958 49.1821 34.4358C49.3757 34.0258 49.5638 33.6586 49.7778 33.2587C49.7925 33.308 49.8075 33.3561 49.823 33.4043C50.0473 34.3698 50.4259 35.2946 50.9448 36.1448C51.043 36.3249 51.1798 36.4823 51.3458 36.6062C51.5138 36.7316 51.7077 36.8196 51.914 36.8643C52.1203 36.909 52.3341 36.9092 52.5405 36.8649C52.7466 36.8207 52.9411 36.7326 53.1092 36.6078L53.4419 36.3643L56.0242 34.2376L55.8715 35.1891C55.6619 36.497 55.4539 37.794 55.2329 39.0913C55.0883 39.6663 55.0885 40.2669 55.2335 40.8417C55.2963 41.1652 55.4563 41.463 55.6931 41.6972C55.9319 41.9333 56.2377 42.0937 56.5709 42.1577C56.9041 42.2216 57.2493 42.1862 57.5616 42.0559C57.8694 41.9276 58.1312 41.713 58.3142 41.4395C58.74 40.923 59.005 40.2977 59.0778 39.638C59.1874 38.7064 59.3112 37.7621 59.4351 36.8181C59.5778 35.73 59.7205 34.6422 59.841 33.5753L59.8414 33.572C59.9574 32.4041 60.0135 31.2314 60.0096 30.058C60.035 29.6872 59.9406 29.3178 59.7394 29.0021C59.5375 28.6853 59.2385 28.439 58.8851 28.2981C58.5175 28.1347 58.106 28.091 57.7111 28.1736C57.3188 28.2556 56.9637 28.4578 56.6973 28.7507C56.221 29.1814 55.7742 29.6423 55.3597 30.1304L55.3569 30.1337C54.9044 30.685 54.455 31.2471 54.0085 31.8056C53.737 32.1451 53.4663 32.4838 53.197 32.8173Z" fill="white" fill-opacity="0.75"></path>
  </g>
  <defs>
    <clipPath id="clip0_2832_803">
      <rect width="70" height="44" fill="white"></rect>
    </clipPath>
  </defs>
</svg>
