<?xml version="1.0" encoding="UTF-8"?>
<svg xmlns="http://www.w3.org/2000/svg" width="103" height="51" viewBox="0 0 103 51" fill="none">
  <g clip-path="url(#clip0_2832_361)">
    <path d="M0.03125 45.1475H9.52287V42.4448H2.92556V29.8247H0.03125V45.1475Z" fill="white" fill-opacity="0.75"></path>
    <path d="M15.2259 45.4667C16.3752 45.4667 17.3861 45.2113 18.2586 44.7006C19.1382 44.1827 19.8228 43.4698 20.3123 42.5618C20.8088 41.6467 21.0571 40.5932 21.0571 39.4015C21.0571 38.2168 20.8123 37.1705 20.3229 36.2624C19.8334 35.3473 19.1488 34.6308 18.2692 34.113C17.3967 33.5951 16.3823 33.3362 15.2259 33.3362C14.0909 33.3362 13.0871 33.5916 12.2146 34.1024C11.3421 34.6131 10.6575 35.326 10.1609 36.2412C9.66433 37.1491 9.41602 38.2026 9.41602 39.4015C9.41602 40.5861 9.65722 41.6361 10.1396 42.5511C10.6291 43.4592 11.3101 44.1721 12.1826 44.69C13.0552 45.2078 14.0696 45.4667 15.2259 45.4667ZM15.2259 42.764C14.325 42.764 13.6405 42.4625 13.1723 41.8595C12.7111 41.2495 12.4806 40.4301 12.4806 39.4015C12.4806 38.4012 12.7005 37.5925 13.1404 36.9753C13.5872 36.3511 14.2824 36.0389 15.2259 36.0389C16.1411 36.0389 16.8292 36.344 17.2902 36.9541C17.7584 37.5642 17.9925 38.3799 17.9925 39.4015C17.9925 40.3876 17.762 41.1962 17.3009 41.8276C16.8469 42.4518 16.1552 42.764 15.2259 42.764Z" fill="white" fill-opacity="0.75"></path>
    <path d="M26.7815 45.4667C27.3207 45.4667 27.8172 45.4029 28.2713 45.2752C28.7324 45.1475 29.1509 44.9666 29.5269 44.7325V45.8924C29.5411 46.318 29.4311 46.6727 29.197 46.9564C28.97 47.2473 28.665 47.4637 28.2819 47.6056C27.8988 47.7545 27.4909 47.829 27.0582 47.829C26.6538 47.829 26.2778 47.7403 25.9303 47.563C25.5898 47.3857 25.3272 47.1267 25.1428 46.7862L22.4614 48.0844C22.9011 48.8292 23.5289 49.4287 24.3448 49.8827C25.1606 50.3438 26.058 50.5743 27.0369 50.5743C27.8811 50.5743 28.665 50.4608 29.3885 50.2338C30.1121 50.0139 30.7222 49.677 31.2187 49.2229C31.7224 48.7689 32.0665 48.1908 32.2509 47.4885C32.3147 47.2402 32.3573 46.9884 32.3786 46.733C32.407 46.4847 32.4212 46.2187 32.4212 45.9349V33.6554H29.8886V34.2939C29.4985 33.9888 29.0551 33.7547 28.5585 33.5916C28.069 33.4213 27.5264 33.3362 26.9305 33.3362C25.831 33.3362 24.8733 33.5987 24.0575 34.1236C23.2417 34.6486 22.6068 35.3686 22.1528 36.2837C21.7058 37.1917 21.4824 38.231 21.4824 39.4015C21.4824 40.5507 21.7023 41.5828 22.1422 42.498C22.589 43.413 23.2097 44.1366 24.0042 44.6687C24.7988 45.2007 25.7245 45.4667 26.7815 45.4667ZM27.2497 42.8917C26.6255 42.8917 26.1147 42.7356 25.7174 42.4235C25.3202 42.1114 25.0258 41.6928 24.8343 41.1679C24.6427 40.6358 24.5469 40.047 24.5469 39.4015C24.5469 38.763 24.6463 38.1813 24.8449 37.6564C25.0436 37.1243 25.3486 36.7023 25.76 36.3901C26.1785 36.0709 26.7106 35.9113 27.3561 35.9113C28.2642 35.9113 28.9132 36.2341 29.3034 36.8796C29.6936 37.518 29.8886 38.3587 29.8886 39.4015C29.8886 40.4442 29.69 41.2884 29.2928 41.9339C28.9026 42.5724 28.2216 42.8917 27.2497 42.8917Z" fill="white" fill-opacity="0.75"></path>
    <path d="M39.2943 45.4667C40.4435 45.4667 41.4544 45.2113 42.3269 44.7006C43.2066 44.1827 43.8911 43.4698 44.3806 42.5618C44.8772 41.6467 45.1255 40.5932 45.1255 39.4015C45.1255 38.2168 44.8807 37.1705 44.3913 36.2624C43.9017 35.3473 43.2172 34.6308 42.3376 34.113C41.465 33.5951 40.4506 33.3362 39.2943 33.3362C38.1592 33.3362 37.1555 33.5916 36.2829 34.1024C35.4104 34.6131 34.7258 35.326 34.2292 36.2412C33.7327 37.1491 33.4844 38.2026 33.4844 39.4015C33.4844 40.5861 33.7256 41.6361 34.208 42.5511C34.6974 43.4592 35.3785 44.1721 36.251 44.69C37.1236 45.2078 38.138 45.4667 39.2943 45.4667ZM39.2943 42.764C38.3933 42.764 37.7088 42.4625 37.2406 41.8595C36.7795 41.2495 36.549 40.4301 36.549 39.4015C36.549 38.4012 36.7689 37.5925 37.2087 36.9753C37.6556 36.3511 38.3508 36.0389 39.2943 36.0389C40.2094 36.0389 40.8975 36.344 41.3586 36.9541C41.8268 37.5642 42.0609 38.3799 42.0609 39.4015C42.0609 40.3876 41.8303 41.1962 41.3692 41.8276C40.9152 42.4518 40.2236 42.764 39.2943 42.764Z" fill="white" fill-opacity="0.75"></path>
    <path d="M46.4023 32.0593H49.2966V29.5055H46.4023V32.0593ZM46.4023 45.1475H49.2966V33.6554H46.4023V45.1475Z" fill="white" fill-opacity="0.75"></path>
    <path d="M51.1875 50.2551H54.1031V44.7325C54.4791 44.9666 54.8941 45.1475 55.3481 45.2752C55.8092 45.4029 56.3093 45.4667 56.8484 45.4667C57.9055 45.4667 58.8312 45.2007 59.6257 44.6687C60.4203 44.1366 61.0374 43.413 61.4772 42.498C61.9241 41.5828 62.1476 40.5507 62.1476 39.4015C62.1476 38.231 61.9206 37.1917 61.4666 36.2837C61.0196 35.3686 60.3883 34.6486 59.5725 34.1236C58.7567 33.5987 57.799 33.3362 56.6995 33.3362C56.1036 33.3362 55.5574 33.4213 55.0607 33.5916C54.5713 33.7547 54.1315 33.9888 53.7413 34.2939V33.6554H51.1875V50.2551ZM56.3802 42.8917C55.4155 42.8917 54.7345 42.5724 54.3372 41.9339C53.9399 41.2884 53.7413 40.4442 53.7413 39.4015C53.7413 38.3587 53.9364 37.518 54.3266 36.8796C54.7238 36.2341 55.3729 35.9113 56.2739 35.9113C56.9194 35.9113 57.4479 36.0709 57.8593 36.3901C58.2778 36.7023 58.5864 37.1243 58.7851 37.6564C58.9837 38.1813 59.0831 38.763 59.0831 39.4015C59.0831 40.047 58.9872 40.6358 58.7957 41.1679C58.6042 41.6928 58.3098 42.1114 57.9126 42.4235C57.5153 42.7356 57.0045 42.8917 56.3802 42.8917Z" fill="white" fill-opacity="0.75"></path>
    <path d="M67.3906 45.4667C68.8946 45.4667 70.0721 45.1298 70.9234 44.4559C71.7746 43.7819 72.2003 42.8562 72.2003 41.6786C72.2003 40.7848 71.9236 40.079 71.3703 39.5611C70.824 39.0432 69.8947 38.614 68.5824 38.2736C67.6885 38.0465 67.0218 37.8621 66.5819 37.7202C66.1492 37.5784 65.8619 37.44 65.72 37.3052C65.5852 37.1705 65.5179 37.0038 65.5179 36.8051C65.5179 36.4717 65.6775 36.2163 65.9967 36.0389C66.323 35.8616 66.7521 35.7907 67.2842 35.8262C68.4122 35.9113 69.0293 36.3937 69.1357 37.2733L72.0939 36.7412C71.9449 35.6985 71.4341 34.872 70.5616 34.262C69.6891 33.6448 68.5753 33.3362 67.2203 33.3362C65.83 33.3362 64.7197 33.6625 63.8898 34.3151C63.0598 34.9678 62.6448 35.8474 62.6448 36.9541C62.6448 37.8337 62.9321 38.5289 63.5067 39.0397C64.0813 39.5434 65.0709 39.976 66.4755 40.3379C67.3055 40.5578 67.9156 40.7351 68.3057 40.8699C68.703 41.0047 68.9584 41.143 69.0719 41.2849C69.1853 41.4197 69.2421 41.6006 69.2421 41.8276C69.2421 42.1894 69.1002 42.4731 68.8165 42.6789C68.5327 42.8774 68.1284 42.9768 67.6034 42.9768C66.965 42.9768 66.4365 42.8243 66.018 42.5192C65.6065 42.2142 65.3405 41.7921 65.2199 41.253L62.2617 41.6998C62.4533 42.8988 62.9924 43.8281 63.8792 44.4878C64.773 45.1404 65.9435 45.4667 67.3906 45.4667Z" fill="white" fill-opacity="0.75"></path>
    <path d="M77.5412 45.4881C78.3712 45.4881 79.0948 45.3497 79.712 45.073C80.3291 44.7964 80.847 44.4275 81.2655 43.9664V45.1475H83.8191V33.6554H80.9037V39.4866C80.9037 40.196 80.8222 40.7706 80.659 41.2104C80.5029 41.6432 80.3007 41.973 80.0524 42.2C79.8042 42.42 79.5381 42.5689 79.2544 42.6469C78.9706 42.725 78.7046 42.764 78.4564 42.764C77.8392 42.764 77.3603 42.6256 77.0198 42.349C76.6864 42.0723 76.4452 41.7283 76.2962 41.3168C76.1472 40.9053 76.0586 40.4975 76.0302 40.0931C76.0018 39.6817 75.9876 39.3447 75.9876 39.0822V33.6554H73.0508V40.1038C73.0508 40.2953 73.065 40.6003 73.0933 41.0189C73.1217 41.4374 73.2033 41.9021 73.3381 42.4128C73.4729 42.9165 73.6963 43.4024 74.0085 43.8706C74.3277 44.3388 74.7711 44.7254 75.3386 45.0305C75.9061 45.3355 76.6403 45.4881 77.5412 45.4881Z" fill="white" fill-opacity="0.75"></path>
    <path d="M85.4941 45.1475H88.4095V38.1884C88.4095 37.5287 88.5901 36.9931 88.9521 36.5816C89.3208 36.1631 89.8066 35.9538 90.4102 35.9538C91.0414 35.9538 91.5347 36.1667 91.8892 36.5923C92.2504 37.0108 92.4318 37.5996 92.4318 38.3587V45.1475H95.3263V38.1884C95.3263 37.5287 95.5069 36.9931 95.8689 36.5816C96.2376 36.1631 96.7233 35.9538 97.3261 35.9538C97.9582 35.9538 98.4506 36.1667 98.8051 36.5923C99.1672 37.0108 99.3486 37.5996 99.3486 38.3587V45.1475H102.242V37.5925C102.242 36.3369 101.905 35.3225 101.231 34.5492C100.565 33.7689 99.5752 33.3787 98.2625 33.3787C97.5251 33.3787 96.8479 33.5383 96.2301 33.8575C95.613 34.1768 95.1206 34.6131 94.7511 35.1664C94.4534 34.6273 94.0279 34.1946 93.4744 33.8682C92.9209 33.5419 92.2328 33.3787 91.4101 33.3787C90.7145 33.3787 90.0766 33.5171 89.4947 33.7937C88.9128 34.0633 88.4304 34.4358 88.0475 34.911V33.6554H85.4941V45.1475Z" fill="white" fill-opacity="0.75"></path>
    <path d="M0 12.1229C5.85324e-07 5.42763 5.42763 -5.85321e-07 12.123 0C15.7529 3.17345e-07 19.0103 1.59541 21.2321 4.12328C25.2632 8.6491 28.5966 8.41098 32.1366 5.06986C33.8735 3.42991 36.2161 2.42459 38.7934 2.42459C44.1497 2.4246 48.4918 6.76669 48.4918 12.1229C48.4918 17.4792 44.1497 21.8213 38.7934 21.8213C36.2161 21.8213 33.8735 20.8159 32.1366 19.176C28.5975 15.8357 25.2648 15.5968 21.235 20.1192C19.0131 22.6491 15.7545 24.2459 12.123 24.2459C5.42763 24.2459 -5.85322e-07 18.8182 0 12.1229Z" fill="#F2F5FA"></path>
    <path d="M0 12.1229C5.85324e-07 5.42763 5.42763 -5.85321e-07 12.123 0C15.7529 3.17345e-07 19.0103 1.59541 21.2321 4.12328C25.2632 8.6491 28.5966 8.41098 32.1366 5.06986C33.8735 3.42991 36.2161 2.42459 38.7934 2.42459C44.1497 2.4246 48.4918 6.76669 48.4918 12.1229C48.4918 17.4792 44.1497 21.8213 38.7934 21.8213C36.2161 21.8213 33.8735 20.8159 32.1366 19.176C28.5975 15.8357 25.2648 15.5968 21.235 20.1192C19.0131 22.6491 15.7545 24.2459 12.123 24.2459C5.42763 24.2459 -5.85322e-07 18.8182 0 12.1229Z" fill="url(#paint0_linear_2832_361)"></path>
    <path d="M0 12.1229C5.85324e-07 5.42763 5.42763 -5.85321e-07 12.123 0C15.7529 3.17345e-07 19.0103 1.59541 21.2321 4.12328C25.2632 8.6491 28.5966 8.41098 32.1366 5.06986C33.8735 3.42991 36.2161 2.42459 38.7934 2.42459C44.1497 2.4246 48.4918 6.76669 48.4918 12.1229C48.4918 17.4792 44.1497 21.8213 38.7934 21.8213C36.2161 21.8213 33.8735 20.8159 32.1366 19.176C28.5975 15.8357 25.2648 15.5968 21.235 20.1192C19.0131 22.6491 15.7545 24.2459 12.123 24.2459C5.42763 24.2459 -5.85322e-07 18.8182 0 12.1229Z" fill="url(#paint1_linear_2832_361)"></path>
    <path d="M0 12.1229C5.85324e-07 5.42763 5.42763 -5.85321e-07 12.123 0C15.7529 3.17345e-07 19.0103 1.59541 21.2321 4.12328C25.2632 8.6491 28.5966 8.41098 32.1366 5.06986C33.8735 3.42991 36.2161 2.42459 38.7934 2.42459C44.1497 2.4246 48.4918 6.76669 48.4918 12.1229C48.4918 17.4792 44.1497 21.8213 38.7934 21.8213C36.2161 21.8213 33.8735 20.8159 32.1366 19.176C28.5975 15.8357 25.2648 15.5968 21.235 20.1192C19.0131 22.6491 15.7545 24.2459 12.123 24.2459C5.42763 24.2459 -5.85322e-07 18.8182 0 12.1229Z" fill="url(#paint2_radial_2832_361)"></path>
    <path d="M0 12.1229C5.85324e-07 5.42763 5.42763 -5.85321e-07 12.123 0C15.7529 3.17345e-07 19.0103 1.59541 21.2321 4.12328C25.2632 8.6491 28.5966 8.41098 32.1366 5.06986C33.8735 3.42991 36.2161 2.42459 38.7934 2.42459C44.1497 2.4246 48.4918 6.76669 48.4918 12.1229C48.4918 17.4792 44.1497 21.8213 38.7934 21.8213C36.2161 21.8213 33.8735 20.8159 32.1366 19.176C28.5975 15.8357 25.2648 15.5968 21.235 20.1192C19.0131 22.6491 15.7545 24.2459 12.123 24.2459C5.42763 24.2459 -5.85322e-07 18.8182 0 12.1229Z" fill="url(#paint3_radial_2832_361)"></path>
    <path d="M0 12.1229C5.85324e-07 5.42763 5.42763 -5.85321e-07 12.123 0C15.7529 3.17345e-07 19.0103 1.59541 21.2321 4.12328C25.2632 8.6491 28.5966 8.41098 32.1366 5.06986C33.8735 3.42991 36.2161 2.42459 38.7934 2.42459C44.1497 2.4246 48.4918 6.76669 48.4918 12.1229C48.4918 17.4792 44.1497 21.8213 38.7934 21.8213C36.2161 21.8213 33.8735 20.8159 32.1366 19.176C28.5975 15.8357 25.2648 15.5968 21.235 20.1192C19.0131 22.6491 15.7545 24.2459 12.123 24.2459C5.42763 24.2459 -5.85322e-07 18.8182 0 12.1229Z" fill="url(#paint4_radial_2832_361)"></path>
  </g>
  <defs>
    <linearGradient id="paint0_linear_2832_361" x1="36.5328" y1="18.1484" x2="8.61449" y2="-3.54766" gradientUnits="userSpaceOnUse">
      <stop stop-color="#FF557E"></stop>
      <stop offset="0.841052" stop-color="#FF5555" stop-opacity="0"></stop>
    </linearGradient>
    <linearGradient id="paint1_linear_2832_361" x1="12.1249" y1="22.62" x2="19.5838" y2="-3.21883" gradientUnits="userSpaceOnUse">
      <stop stop-color="#58CCDC"></stop>
      <stop offset="1" stop-color="#58CCDC" stop-opacity="0"></stop>
    </linearGradient>
    <radialGradient id="paint2_radial_2832_361" cx="0" cy="0" r="1" gradientUnits="userSpaceOnUse" gradientTransform="translate(38.0309 29.2966) rotate(-122.928) scale(30.9771 25.3656)">
      <stop stop-color="#8263DB"></stop>
      <stop offset="0.568731" stop-color="#8172DA" stop-opacity="0.26"></stop>
      <stop offset="1" stop-color="#8172DA" stop-opacity="0"></stop>
    </radialGradient>
    <radialGradient id="paint3_radial_2832_361" cx="0" cy="0" r="1" gradientUnits="userSpaceOnUse" gradientTransform="translate(15.3018 -3.50732) rotate(77.6745) scale(20.8654 32.7958)">
      <stop stop-color="#41D1B7"></stop>
      <stop offset="0.492704" stop-color="#41D1B7" stop-opacity="0.35"></stop>
      <stop offset="1" stop-color="#41D1B7" stop-opacity="0"></stop>
    </radialGradient>
    <radialGradient id="paint4_radial_2832_361" cx="0" cy="0" r="1" gradientUnits="userSpaceOnUse" gradientTransform="translate(49.8668 -8.98319) rotate(125.113) scale(22.6675 48.012)">
      <stop stop-color="#FFEC45"></stop>
      <stop offset="0.549191" stop-color="#FFEC45" stop-opacity="0.3"></stop>
      <stop offset="0.961144" stop-color="#FFEC45" stop-opacity="0"></stop>
    </radialGradient>
    <clipPath id="clip0_2832_361">
      <rect width="102.836" height="51" fill="white"></rect>
    </clipPath>
  </defs>
</svg>
