<?xml version="1.0" encoding="UTF-8"?>
<svg xmlns="http://www.w3.org/2000/svg" width="100" height="51" viewBox="0 0 100 51" fill="none">
  <path d="M2.58594 29.5165H5.41886V43.4072H2.58594V29.5165Z" fill="white" fill-opacity="0.75"></path>
  <path d="M7.06077 38.6479C7.0589 37.6502 7.35305 36.6743 7.906 35.8438C8.45895 35.0133 9.24584 34.3655 10.1671 33.9824C11.0883 33.5993 12.1025 33.4981 13.0813 33.6916C14.0601 33.8851 14.9595 34.3646 15.6656 35.0695C16.3718 35.7743 16.853 36.6728 17.0483 37.6512C17.2437 38.6296 17.1444 39.644 16.763 40.566C16.3816 41.4879 15.7353 42.276 14.9058 42.8305C14.0764 43.3851 13.1011 43.681 12.1034 43.681C11.4398 43.6886 10.7815 43.5637 10.1669 43.3135C9.55232 43.0634 8.99383 42.6931 8.52419 42.2243C8.05455 41.7556 7.6832 41.1978 7.43191 40.5836C7.18062 39.9695 7.05444 39.3114 7.06077 38.6479ZM14.2941 38.6479C14.283 38.2172 14.1451 37.7993 13.8977 37.4466C13.6503 37.0938 13.3044 36.8219 12.9032 36.6647C12.502 36.5075 12.0634 36.4722 11.6423 36.563C11.2211 36.6538 10.8361 36.8668 10.5353 37.1753C10.2346 37.4838 10.0315 37.8742 9.95144 38.2976C9.87139 38.7209 9.91797 39.1585 10.0853 39.5555C10.2527 39.9525 10.5334 40.2914 10.8923 40.5297C11.2513 40.768 11.6725 40.8952 12.1034 40.8953C12.3981 40.9036 12.6914 40.8507 12.9647 40.7399C13.238 40.6291 13.4854 40.4629 13.6913 40.2517C13.8971 40.0405 14.057 39.789 14.1607 39.513C14.2645 39.2369 14.3099 38.9424 14.2941 38.6479Z" fill="white" fill-opacity="0.75"></path>
  <path d="M28.5355 33.8886V42.935C28.5355 46.1362 26.0331 47.4866 23.5024 47.4866C22.6125 47.5528 21.7215 47.3728 20.927 46.9664C20.1325 46.56 19.4652 45.9428 18.9981 45.1825L21.4344 43.7755C21.6277 44.1651 21.9336 44.4878 22.3124 44.7016C22.6912 44.9154 23.1255 45.0106 23.5591 44.9747C23.8443 45.0223 24.1367 45.0037 24.4137 44.9203C24.6907 44.837 24.9448 44.6912 25.1565 44.4941C25.3681 44.297 25.5317 44.0539 25.6346 43.7836C25.7375 43.5133 25.7769 43.223 25.7498 42.935V42.0568C25.4168 42.4666 24.9918 42.7921 24.5095 43.007C24.0272 43.2219 23.501 43.3202 22.9736 43.2939C21.6913 43.2939 20.4616 42.7845 19.5548 41.8778C18.6481 40.9711 18.1387 39.7413 18.1387 38.459C18.1387 37.1767 18.6481 35.947 19.5548 35.0403C20.4616 34.1336 21.6913 33.6242 22.9736 33.6242C23.5007 33.6001 24.0261 33.6994 24.5081 33.9141C24.9901 34.1289 25.4153 34.4532 25.7498 34.8612V33.9169L28.5355 33.8886ZM25.7498 38.459C25.7687 37.9998 25.6497 37.5454 25.4083 37.1542C25.1668 36.7631 24.8139 36.4531 24.3949 36.2642C23.9759 36.0752 23.5099 36.0159 23.0569 36.0939C22.6039 36.1718 22.1846 36.3835 21.8529 36.7016C21.5211 37.0198 21.2921 37.4299 21.1953 37.8792C21.0984 38.3285 21.1382 38.7966 21.3095 39.2231C21.4808 39.6497 21.7757 40.0152 22.1564 40.2728C22.5371 40.5305 22.9861 40.6683 23.4457 40.6687C23.7458 40.6899 24.0469 40.6481 24.3297 40.5458C24.6126 40.4435 24.8709 40.2832 25.088 40.075C25.305 39.8668 25.4761 39.6154 25.5901 39.3371C25.7041 39.0588 25.7585 38.7597 25.7498 38.459Z" fill="white" fill-opacity="0.75"></path>
  <path d="M30.1682 38.6479C30.1663 37.6502 30.4605 36.6743 31.0134 35.8438C31.5664 35.0133 32.3533 34.3655 33.2745 33.9824C34.1957 33.5993 35.2099 33.4981 36.1887 33.6916C37.1675 33.8851 38.0669 34.3646 38.7731 35.0695C39.4792 35.7743 39.9604 36.6728 40.1558 37.6512C40.3511 38.6296 40.2518 39.644 39.8704 40.566C39.489 41.4879 38.8427 42.276 38.0133 42.8305C37.1838 43.3851 36.2085 43.681 35.2108 43.681C34.5473 43.6886 33.8889 43.5637 33.2743 43.3135C32.6597 43.0634 32.1012 42.6931 31.6316 42.2243C31.162 41.7556 30.7906 41.1978 30.5393 40.5836C30.288 39.9695 30.1618 39.3114 30.1682 38.6479ZM37.4016 38.6479C37.3904 38.2172 37.2525 37.7993 37.0051 37.4466C36.7577 37.0938 36.4118 36.8219 36.0106 36.6647C35.6095 36.5075 35.1709 36.4722 34.7497 36.563C34.3285 36.6538 33.9435 36.8668 33.6427 37.1753C33.342 37.4838 33.1389 37.8742 33.0588 38.2976C32.9788 38.7209 33.0254 39.1585 33.1927 39.5555C33.3601 39.9525 33.6408 40.2914 33.9997 40.5297C34.3587 40.768 34.7799 40.8952 35.2108 40.8953C35.504 40.9009 35.7952 40.8461 36.0663 40.7341C36.3373 40.6221 36.5824 40.4555 36.7862 40.2446C36.99 40.0338 37.1481 39.7831 37.2508 39.5084C37.3534 39.2337 37.3983 38.9407 37.3827 38.6479H37.4016Z" fill="white" fill-opacity="0.75"></path>
  <path d="M41.5664 31.339C41.5664 30.9991 41.6672 30.6668 41.856 30.3842C42.0449 30.1016 42.3133 29.8813 42.6273 29.7512C42.9414 29.6211 43.2869 29.5871 43.6203 29.6534C43.9537 29.7197 44.2599 29.8834 44.5003 30.1237C44.7407 30.3641 44.9043 30.6703 44.9706 31.0037C45.037 31.3371 45.0029 31.6827 44.8729 31.9967C44.7428 32.3107 44.5225 32.5792 44.2399 32.768C43.9572 32.9568 43.625 33.0576 43.285 33.0576C42.83 33.0552 42.3943 32.8733 42.0725 32.5515C41.7507 32.2298 41.5689 31.7941 41.5664 31.339ZM41.8591 33.8886H44.692V43.4072H41.8591V33.8886Z" fill="white" fill-opacity="0.75"></path>
  <path d="M57.0438 38.6479C57.0781 39.2771 56.9877 39.9069 56.7777 40.501C56.5676 41.0951 56.2422 41.6418 55.82 42.1096C55.3978 42.5774 54.8873 42.9571 54.3178 43.2268C53.7483 43.4965 53.1311 43.6509 52.5017 43.6811C51.9733 43.7064 51.4457 43.6156 50.9563 43.4149C50.4668 43.2142 50.0273 42.9086 49.6688 42.5196V47.2411H46.8359V33.8886H49.6688V34.7857C50.0273 34.3967 50.4668 34.0911 50.9563 33.8904C51.4457 33.6897 51.9733 33.5989 52.5017 33.6242C53.1303 33.6544 53.7467 33.8085 54.3155 34.0776C54.8844 34.3468 55.3945 34.7256 55.8165 35.1924C56.2386 35.6592 56.5642 36.2047 56.7748 36.7977C56.9855 37.3907 57.0769 38.0195 57.0438 38.6479ZM54.2109 38.6479C54.1997 38.2047 54.0587 37.7745 53.8054 37.4106C53.5521 37.0468 53.1977 36.7651 52.786 36.6007C52.3743 36.4362 51.9233 36.3961 51.4891 36.4854C51.0548 36.5746 50.6562 36.7893 50.3427 37.1028C50.0292 37.4163 49.8146 37.8148 49.7253 38.2491C49.6361 38.6834 49.6762 39.1343 49.8406 39.546C50.0051 39.9577 50.2867 40.3122 50.6506 40.5654C51.0145 40.8187 51.4447 40.9597 51.8879 40.9709C52.1972 40.9906 52.5071 40.9438 52.7969 40.8338C53.0866 40.7237 53.3494 40.5529 53.5677 40.3329C53.7859 40.1128 53.9546 39.8486 54.0623 39.558C54.1699 39.2674 54.2142 38.9571 54.192 38.6479H54.2109Z" fill="white" fill-opacity="0.75"></path>
  <path d="M65.8635 40.5554C65.8635 42.7462 63.9749 43.681 61.8974 43.681C61.0675 43.7545 60.2346 43.5779 59.5059 43.174C58.7773 42.7701 58.1861 42.1574 57.8086 41.4147L60.2827 40.0077C60.3831 40.3512 60.5981 40.65 60.8918 40.8544C61.1856 41.0588 61.5404 41.1566 61.8974 41.1314C62.5868 41.1314 62.9267 40.9142 62.9267 40.5365C62.9267 39.4883 58.2052 40.0455 58.2052 36.7593C58.2052 34.6818 59.9616 33.6336 61.9824 33.6336C62.7281 33.611 63.4663 33.7881 64.1205 34.1468C64.7747 34.5054 65.321 35.0325 65.703 35.6733L63.2195 36.9765C63.1098 36.7271 62.93 36.5149 62.702 36.3657C62.474 36.2165 62.2077 36.1367 61.9352 36.136C61.4442 36.136 61.142 36.3249 61.142 36.6743C61.1798 37.7602 65.8635 37.0331 65.8635 40.5554Z" fill="white" fill-opacity="0.75"></path>
  <path d="M76.2884 33.8886V43.4072H73.4554V42.5196C73.1259 42.914 72.7077 43.2248 72.235 43.4267C71.7624 43.6286 71.2486 43.7157 70.7358 43.6811C68.8472 43.6811 67.1758 42.3118 67.1758 39.7339V33.8886H70.0087V39.3184C69.9838 39.5498 70.0108 39.7838 70.0876 40.0035C70.1644 40.2232 70.2891 40.423 70.4528 40.5885C70.6164 40.754 70.8149 40.8809 71.0337 40.9601C71.2525 41.0394 71.4863 41.0688 71.7179 41.0465C72.7567 41.0465 73.4838 40.4421 73.4838 39.0918V33.8886H76.2884Z" fill="white" fill-opacity="0.75"></path>
  <path d="M92.663 37.5713V43.4071H89.83V37.8169C89.83 36.8726 89.3673 36.2493 88.4608 36.2493C87.5543 36.2493 86.9688 36.9198 86.9688 38.0435V43.4071H84.1359V37.8169C84.1359 36.8726 83.6826 36.2493 82.7666 36.2493C81.8507 36.2493 81.2841 36.9198 81.2841 38.0435V43.4071H78.4512V33.8886H81.2841V34.7668C81.5802 34.3789 81.9685 34.0712 82.4138 33.8717C82.8591 33.6721 83.3472 33.587 83.8337 33.6242C84.3223 33.6004 84.8088 33.7037 85.2456 33.9237C85.6825 34.1438 86.0549 34.4733 86.3267 34.8801C86.6427 34.4548 87.0614 34.1165 87.5436 33.8969C88.0258 33.6773 88.5558 33.5834 89.084 33.6242C91.2371 33.6242 92.663 35.1917 92.663 37.5713Z" fill="white" fill-opacity="0.75"></path>
  <path d="M95.0801 33.832C96.2483 33.832 97.1953 32.8849 97.1953 31.7167C97.1953 30.5485 96.2483 29.6015 95.0801 29.6015C93.9119 29.6015 92.9648 30.5485 92.9648 31.7167C92.9648 32.8849 93.9119 33.832 95.0801 33.832Z" fill="white" fill-opacity="0.75"></path>
  <path d="M34.6441 22.3115C40.1149 22.3115 44.5498 17.8765 44.5498 12.4057C44.5498 6.93496 40.1149 2.5 34.6441 2.5C29.1733 2.5 24.7383 6.93496 24.7383 12.4057C24.7383 17.8765 29.1733 22.3115 34.6441 22.3115Z" fill="white" fill-opacity="0.75"></path>
  <path d="M56.7886 22.3115C62.2594 22.3115 66.6943 17.8765 66.6943 12.4057C66.6943 6.93496 62.2594 2.5 56.7886 2.5C51.3178 2.5 46.8828 6.93496 46.8828 12.4057C46.8828 17.8765 51.3178 22.3115 56.7886 22.3115Z" fill="white" fill-opacity="0.75"></path>
  <path d="M22.4056 2.5H2.60352V22.302H22.4056V2.5Z" fill="white" fill-opacity="0.75"></path>
</svg>
