<?xml version="1.0" encoding="UTF-8"?>
<svg xmlns="http://www.w3.org/2000/svg" width="177" height="100" viewBox="0 0 177 100" fill="none">
  <path d="M124.575 31.9837C125.397 33.2122 126.186 34.7277 125.798 36.3518C124.459 35.5854 123.382 34.3341 122.528 33.0988C121.668 31.8552 120.775 30.5328 120.469 29C122.158 29.432 123.67 30.6312 124.575 31.9837Z" fill="white" fill-opacity="0.75"></path>
  <path d="M51.9801 36.3492C51.5931 34.7248 52.3837 33.2099 53.2072 31.9821C54.1137 30.6304 55.6262 29.4323 57.3154 29.0015C57.0085 30.534 56.1141 31.8559 55.2532 33.0987C54.3981 34.3334 53.3196 35.5839 51.9801 36.3492Z" fill="white" fill-opacity="0.75"></path>
  <path d="M50.8025 39.4652C51.1046 38.1788 51.0979 36.7705 50.8103 35.5639C50.5574 34.5035 50.1894 33.0045 48.9782 32.4987C48.0978 33.9109 47.7439 35.834 48.257 37.275C48.628 38.3173 49.2952 39.6954 50.6789 39.9087C51.9486 40.2014 53.2325 39.5241 54.2465 38.9649C55.374 38.3432 56.4784 37.3541 57.1494 36.1782C55.9185 35.5569 54.5167 36.0611 53.4621 36.5443C52.3253 37.0652 51.281 38.1828 50.8025 39.4652Z" fill="white" fill-opacity="0.75"></path>
  <path d="M75.4441 40.701V34.2424H73.2391V36.5955H69.9316V34.2424H67.7266V40.701H69.9316V38.3562H73.2391V40.701H75.4441Z" fill="white" fill-opacity="0.75"></path>
  <path d="M82.7552 34.2424H85.1905L81.735 38.5701V40.701H79.5218V38.5783L76.1074 34.2424H78.6167L80.6572 36.8258L82.7552 34.2424Z" fill="white" fill-opacity="0.75"></path>
  <path fill-rule="evenodd" clip-rule="evenodd" d="M92.8704 34.7936C93.3065 35.1392 93.5533 35.7234 93.5533 36.5708C93.5533 37.2619 93.3805 37.7802 93.0514 38.1423C92.6071 38.6524 91.8749 38.8827 90.9205 38.891C90.6243 38.8992 88.0902 38.891 88.0902 38.891V40.701H85.877V34.2424H90.8876C91.7761 34.2424 92.4508 34.4234 92.8704 34.7936ZM91.2331 37.0727C91.299 36.9575 91.3319 36.8094 91.3319 36.6037C91.3319 36.3898 91.2907 36.2088 91.2167 36.1101C91.0768 35.9044 90.8135 35.8056 90.3857 35.8056H88.0738V37.3853H90.3692C90.83 37.3853 91.1015 37.2784 91.2331 37.0727Z" fill="white" fill-opacity="0.75"></path>
  <path d="M101.237 39.0966V40.701H94.4336V34.2424H101.18V35.855H96.6056V36.686H101.048V38.2574H96.6056V39.0966H101.237Z" fill="white" fill-opacity="0.75"></path>
  <path fill-rule="evenodd" clip-rule="evenodd" d="M109.498 34.9006C109.795 35.205 109.934 35.6246 109.934 36.2088C109.934 36.7107 109.811 37.1385 109.605 37.4265C109.375 37.7391 109.021 38.0024 108.585 38.0682L110.535 40.701H108.083L106.479 38.422H104.48V40.701H102.283V34.2424H107.425C108.445 34.2424 109.112 34.4892 109.498 34.9006ZM107.721 36.7518C107.779 36.6531 107.795 36.5214 107.795 36.4145C107.795 36.2911 107.779 36.1594 107.721 36.0771C107.606 35.8632 107.376 35.8056 107.03 35.8056H104.488V36.9822H107.071C107.425 36.9822 107.639 36.9164 107.721 36.7518Z" fill="white" fill-opacity="0.75"></path>
  <path d="M100.059 48.8017C100.059 47.3254 99.1211 46.5495 96.9335 46.3124C96.5779 46.2693 95.5326 46.1615 94.8752 46.1076C93.1833 45.9244 92.6769 45.8275 92.6769 45.3964C92.6769 45.0085 93.0756 44.8253 94.595 44.8253C95.6727 44.8253 96.2762 45.03 96.5132 45.3425C96.6318 45.4934 96.6749 45.6119 96.6857 45.7305H99.7893C99.7569 45.4718 99.6492 45.1054 99.4767 44.7822C98.9164 43.7045 97.5693 42.8424 94.6705 42.8424C91.4052 42.8424 89.6164 43.9955 89.6164 45.5042C89.6164 46.959 90.6293 47.8103 93.3665 48.0582C93.676 48.0847 94.3407 48.1475 94.8849 48.1989L94.9185 48.2021L94.9246 48.2027L94.927 48.2029L95.2201 48.2306C96.6533 48.3815 97.0413 48.4784 97.0413 48.9311C97.0413 49.3513 96.6641 49.5776 95.08 49.5776C93.8515 49.5776 93.1295 49.3944 92.8708 49.0819C92.7631 48.9526 92.6876 48.7586 92.6661 48.6293H89.5625C89.5948 48.8448 89.6487 49.1897 89.7672 49.4699C90.2953 50.6553 91.6747 51.5605 94.8752 51.5605C98.3129 51.5605 100.059 50.5906 100.059 48.8017Z" fill="white" fill-opacity="0.75"></path>
  <path fill-rule="evenodd" clip-rule="evenodd" d="M78.0575 50.5691C78.3808 50.1919 78.5424 49.6207 78.5424 49.0388C78.5424 48.5431 78.4131 48.0689 78.1437 47.7564C77.8204 47.3361 77.2492 47.0344 76.6458 46.959C77.0553 46.9051 77.4432 46.6896 77.6695 46.4094C77.9497 46.0753 78.079 45.6227 78.079 45.0731C78.079 44.5235 77.9174 44.0386 77.551 43.6722C77.1415 43.2519 76.3979 42.9717 75.2341 42.9717H67.9277V51.4312H75.4388C76.635 51.4312 77.5618 51.1725 78.0575 50.5691ZM75.0832 45.5796C75.0832 45.7844 75.0185 45.9568 74.9108 46.0753C74.7599 46.2154 74.4797 46.2693 74.1133 46.2693H70.7511V44.8899H74.0379C74.4474 44.8899 74.7276 44.9438 74.8784 45.0839C75.0185 45.2024 75.0832 45.3748 75.0832 45.5796ZM75.4065 49.2867C75.2341 49.4483 74.9323 49.513 74.4258 49.513H70.7511V48.1013H74.4582C74.9323 48.1013 75.2125 48.1659 75.3741 48.306C75.5035 48.4353 75.5573 48.597 75.5573 48.8125C75.5573 49.0173 75.5142 49.1789 75.4065 49.2867Z" fill="white" fill-opacity="0.75"></path>
  <path d="M88.6893 49.3298V51.4312H79.7773V42.9717H88.6139V45.0839H82.6222V46.1723H88.4415V48.2306H82.6222V49.3298H88.6893Z" fill="white" fill-opacity="0.75"></path>
  <path d="M110.544 45.0947V42.9717H100.447V45.0947H104.014V51.4312H106.966V45.0947H110.544Z" fill="white" fill-opacity="0.75"></path>
  <path d="M110.289 58.9168H109.814L109.78 58.4594C109.635 58.6909 109.328 58.9688 108.68 58.9688C107.585 58.9688 107.076 58.3088 107.076 56.6237C107.076 55.3209 107.4 54.2729 108.737 54.2729C109.896 54.2729 110.249 55.0315 110.266 55.8479H109.687C109.67 55.3152 109.432 54.823 108.749 54.823C107.927 54.823 107.689 55.3152 107.689 56.6412C107.689 58.0251 107.985 58.4594 108.761 58.4594C109.305 58.4594 109.623 58.1583 109.728 57.7993V56.9365H108.558V56.4095H110.283V57.7414C110.283 58.1393 110.287 58.564 110.288 58.7775L110.289 58.8791V58.9168Z" fill="white" fill-opacity="0.75"></path>
  <path fill-rule="evenodd" clip-rule="evenodd" d="M68.0375 57.7645H69.6588L69.9946 58.9168H70.6084L69.265 54.3309H68.5181L67.082 58.9168H67.69L68.0375 57.7645ZM69.514 57.2492H68.1938C68.1938 57.2492 68.767 55.3963 68.7786 55.3558C68.7844 55.3268 68.8771 54.9157 68.8771 54.9157L68.9412 55.2198L68.9697 55.3558C68.9755 55.3847 69.514 57.2492 69.514 57.2492Z" fill="white" fill-opacity="0.75"></path>
  <path d="M75.0024 54.3309H75.5583L74.4755 58.9168H73.7864C73.7864 58.9168 73.0163 55.35 73.0163 55.1994C73.0105 55.35 72.223 58.9168 72.223 58.9168H71.534L70.4512 54.3309H71.0765C71.0765 54.3309 71.9161 57.9614 71.9161 58.1062C71.9161 57.9614 72.6863 54.3309 72.6863 54.3309H73.3753C73.3753 54.3309 74.1454 57.9672 74.1454 58.1062C74.1454 57.9672 75.0024 54.3309 75.0024 54.3309Z" fill="white" fill-opacity="0.75"></path>
  <path fill-rule="evenodd" clip-rule="evenodd" d="M77.9361 57.7645H76.3148L75.9674 58.9168H75.3594L76.7954 54.3309H77.5424L78.8858 58.9168H78.272L77.9361 57.7645ZM76.4712 57.2492H77.7914C77.7914 57.2492 77.2529 55.3847 77.2471 55.3558L77.2033 55.1471L77.1544 54.9157C77.1544 54.9157 77.0618 55.3268 77.056 55.3558C77.0444 55.3963 76.4712 57.2492 76.4712 57.2492Z" fill="white" fill-opacity="0.75"></path>
  <path fill-rule="evenodd" clip-rule="evenodd" d="M81.1172 54.3309C81.8236 54.3309 82.2058 54.6609 82.2058 55.6221C82.2058 56.4386 81.8989 56.7107 81.5804 56.8033L82.4606 58.9168H81.8236L81.0072 56.9192H79.8955V58.9168H79.3164V54.3309H81.1172ZM81.0304 56.398C81.4878 56.398 81.5978 56.1606 81.5978 55.6395C81.5978 55.0489 81.4241 54.8694 81.0014 54.8694H79.9012V56.398H81.0304Z" fill="white" fill-opacity="0.75"></path>
  <path fill-rule="evenodd" clip-rule="evenodd" d="M86.0609 56.5486C86.0609 57.6314 85.9799 58.0714 85.7483 58.4015C85.5167 58.72 85.1519 58.9168 84.5612 58.9168H82.9863V54.3309H84.5207C85.0998 54.3309 85.5514 54.5046 85.7599 54.8173C85.9915 55.1531 86.0609 55.57 86.0609 56.5486ZM84.4397 58.3725C84.7929 58.3725 85.0882 58.2799 85.2387 58.0772C85.4009 57.8572 85.4472 57.4113 85.4472 56.5486C85.4472 55.8248 85.4066 55.4368 85.2387 55.1878C85.0824 54.9736 84.7813 54.8809 84.4281 54.8809H83.5711V58.3725H84.4397Z" fill="white" fill-opacity="0.75"></path>
  <path d="M92.1703 54.3309H92.7262L91.6434 58.9168H90.9543C90.9543 58.9168 90.1842 55.35 90.1842 55.1994C90.1784 55.35 89.3909 58.9168 89.3909 58.9168H88.7019L87.6191 54.3309H88.2444C88.2444 54.3309 89.084 57.9614 89.084 58.1062C89.084 57.9614 89.8541 54.3309 89.8541 54.3309H90.5432C90.5432 54.3309 91.3133 57.9672 91.3133 58.1062C91.3133 57.9672 92.1703 54.3309 92.1703 54.3309Z" fill="white" fill-opacity="0.75"></path>
  <path d="M93.7506 54.3309V58.9168H93.1484V54.3309H93.7506Z" fill="white" fill-opacity="0.75"></path>
  <path d="M97.5198 54.3309V58.9168H96.8539L95.1457 55.3615V58.9168H94.584V54.3309H95.2847L96.9523 57.834V54.3309H97.5198Z" fill="white" fill-opacity="0.75"></path>
  <path d="M101.273 54.3309V58.9168H100.607L98.8996 55.3615V58.9168H98.3379V54.3309H99.0386L100.706 57.834V54.3309H101.273Z" fill="white" fill-opacity="0.75"></path>
  <path d="M102.696 54.3309V58.9168H102.094V54.3309H102.696Z" fill="white" fill-opacity="0.75"></path>
  <path d="M106.465 54.3309V58.9168H105.799L104.091 55.3615V58.9168H103.529V54.3309H104.23L105.898 57.834V54.3309H106.465Z" fill="white" fill-opacity="0.75"></path>
  <path d="M74.5563 67.9554L73.8928 65.9132L73.2292 67.9554H71.082L72.8191 69.2176L72.1556 71.2598L73.8928 69.9976L75.63 71.2598L74.9664 69.2176L76.7036 67.9554H74.5563Z" fill="white" fill-opacity="0.75"></path>
  <path d="M82.2289 67.9557L81.5518 65.9135L80.8747 67.9557H78.6836L80.4563 69.2178L79.7792 71.26L81.5518 69.9979L83.3245 71.26L82.6474 69.2178L84.42 67.9557H82.2289Z" fill="white" fill-opacity="0.75"></path>
  <path d="M89.8285 67.9557L89.1514 65.9135L88.4743 67.9557H86.2832L88.0558 69.2178L87.3787 71.26L89.1514 69.9979L90.924 71.26L90.2469 69.2178L92.0196 67.9557H89.8285Z" fill="white" fill-opacity="0.75"></path>
  <path d="M97.4281 67.9557L96.751 65.9135L96.0739 67.9557H93.8828L95.6554 69.2178L94.9783 71.26L96.751 69.9979L98.5236 71.26L97.8465 69.2178L99.6192 67.9557H97.4281Z" fill="white" fill-opacity="0.75"></path>
  <path d="M105.076 67.9557L104.413 65.9135L103.749 67.9557H101.602L103.339 69.2178L102.676 71.26L104.413 69.9979L106.15 71.26L105.486 69.2178L107.224 67.9557H105.076Z" fill="white" fill-opacity="0.75"></path>
  <path d="M46.8918 42.9365C47.5162 43.8891 48.4824 45.0823 49.8912 45.0483C51.1723 45.1123 52.2791 44.238 53.1507 43.5083C54.0894 42.7224 54.9367 41.5731 55.2944 40.3306C53.9841 39.9494 52.7296 40.6556 51.7941 41.3217C50.8172 42.0174 50.0659 43.2906 49.9045 44.5979C49.8924 43.2882 49.5379 41.9355 48.9664 40.8458C48.4439 39.8496 47.7158 38.503 46.4168 38.2338C45.905 39.7839 46.0683 41.6805 46.8918 42.9365Z" fill="white" fill-opacity="0.75"></path>
  <path d="M50.3079 50.1789C49.0004 50.398 47.725 49.5969 46.8967 48.6546C45.8303 47.4414 45.1958 45.8139 45.3252 44.1846C46.6684 44.2187 47.6857 45.3798 48.4376 46.2578C49.2474 47.2034 49.9109 48.4475 50.2292 49.7309C50.0892 48.4519 50.5186 47.0708 51.3157 46.2174C52.0851 45.3936 53.1629 44.4958 54.5039 44.6399C54.475 45.9368 53.8249 47.1724 53.1544 48.0978C52.5294 48.9602 51.5666 50.0269 50.3079 50.1789Z" fill="white" fill-opacity="0.75"></path>
  <path d="M47.8931 54.4883C49.0973 55.2723 50.5578 56.0483 52.0927 55.461C53.3519 55.0155 54.1525 53.748 54.6449 52.5846C55.1665 51.3519 55.5149 49.9305 55.2737 48.5813C53.89 48.7041 52.7426 49.6941 52.1332 50.9026C51.4961 52.166 51.3739 53.6698 51.8633 54.9944C51.1402 53.6317 50.0827 52.5291 48.9625 51.5103C47.9442 50.5842 46.4774 49.6086 45 49.7921C45.2811 51.6186 46.3957 53.5135 47.8931 54.4883Z" fill="white" fill-opacity="0.75"></path>
  <path d="M55.1955 60.3988C56.3805 59.6904 56.8574 58.1998 57.0523 56.9225C57.2624 55.545 57.2534 54.0258 56.6813 52.719C55.3065 53.103 54.3628 54.3404 54.0512 55.6957C53.722 57.1276 53.9998 58.6537 54.8006 59.8729C53.7361 58.6516 52.3206 57.6432 50.9641 56.9361C49.6538 56.2531 48.0463 55.4293 46.4727 55.9268C47.2315 57.7787 48.8547 59.5029 50.6537 60.2161C52.0469 60.7683 53.7418 61.3144 55.1955 60.3988Z" fill="white" fill-opacity="0.75"></path>
  <path d="M60.8114 60.8782C60.9853 62.2078 60.9804 63.8942 59.9481 64.9176C58.6581 66.238 56.6617 65.9832 55.1219 65.6927C53.0547 65.3024 50.7277 63.8925 49.4805 62.0152C51.0037 61.1765 52.8666 61.713 54.3746 62.1473L54.4607 62.172C56.144 62.6563 57.9378 63.4363 59.438 64.5021C58.2408 63.4203 57.3685 61.8325 57.3258 60.2321C57.2874 58.8007 57.9087 57.2693 59.2457 56.587C60.1791 57.8121 60.6162 59.385 60.8114 60.8782Z" fill="white" fill-opacity="0.75"></path>
  <path d="M66.8044 68.6824C67.5646 67.2353 66.8114 65.5369 66.2112 64.2816C65.5016 62.7976 64.5321 61.2852 63.1446 60.199C61.8123 61.3472 61.939 62.9901 62.3351 64.4179C62.8061 66.1156 64.439 67.5628 66.1299 68.3875C64.1716 67.6572 62.0329 67.2189 59.9981 67.0895L59.792 67.0762C58.1573 66.9697 56.0292 66.8311 54.7266 68.0274C56.6961 69.7017 59.4936 70.6677 61.9592 70.6175C63.6115 70.5839 65.8785 70.3884 66.8044 68.6824Z" fill="white" fill-opacity="0.75"></path>
  <path d="M126.975 39.4698C126.498 38.1865 125.454 37.0675 124.318 36.5456C123.263 36.0616 121.862 35.5565 120.631 36.1767C121.301 37.3531 122.404 38.343 123.531 38.9656C124.544 39.5254 125.827 40.2036 127.097 39.9121C128.481 39.7001 129.15 38.3223 129.522 37.28C130.037 35.8397 129.685 33.9162 128.806 32.5031C127.594 33.0082 127.224 34.5068 126.971 35.5671C126.682 36.774 126.674 38.1828 126.975 39.4698Z" fill="white" fill-opacity="0.75"></path>
  <path d="M125.979 41.3244C126.955 42.0204 127.704 43.2929 127.865 44.5993C127.879 43.2903 128.235 41.9389 128.807 40.8503C129.33 39.8544 130.06 38.5084 131.359 38.2401C131.869 39.7907 131.704 41.6872 130.879 42.9425C130.255 43.8934 129.289 45.0841 127.883 45.0522C126.6 45.1177 125.492 44.2413 124.62 43.5101C123.682 42.7234 122.836 41.5735 122.48 40.3308C123.79 39.9504 125.044 40.6576 125.979 41.3244Z" fill="white" fill-opacity="0.75"></path>
  <path d="M127.535 49.7394C127.678 48.4593 127.25 47.0753 126.452 46.2202C125.684 45.3958 124.607 44.4972 123.266 44.6403C123.293 45.9372 123.942 47.1734 124.612 48.0993C125.236 48.9618 126.197 50.0285 127.455 50.1822C128.763 50.4037 130.04 49.603 130.87 48.6608C131.937 47.4485 132.573 45.8215 132.446 44.192C131.102 44.2252 130.084 45.3854 129.331 46.2628C128.519 47.209 127.854 48.4545 127.535 49.7394Z" fill="white" fill-opacity="0.75"></path>
  <path d="M125.631 50.905C126.267 52.1691 126.388 53.6732 125.897 54.9974C126.621 53.6349 127.68 52.533 128.801 51.5149C129.82 50.5895 131.288 49.6152 132.765 49.7997C132.483 51.6261 131.366 53.5202 129.868 54.4938C128.664 55.2758 127.205 56.0502 125.672 55.4653C124.411 55.0206 123.61 53.7505 123.118 52.5851C122.597 51.352 122.25 49.9304 122.493 48.5813C123.876 48.7052 125.023 49.6961 125.631 50.905Z" fill="white" fill-opacity="0.75"></path>
  <path d="M122.959 59.8706C123.759 58.6526 124.038 57.128 123.711 55.6968C123.401 54.3412 122.458 53.1031 121.083 52.7181C120.51 54.0243 120.5 55.5434 120.708 56.9212C120.902 58.196 121.376 59.6836 122.554 60.3946C124.009 61.3174 125.708 60.7716 127.103 60.2196C128.903 59.5077 130.528 57.7847 131.288 55.9332C129.715 55.4347 128.107 56.2573 126.796 56.9393C125.44 57.645 124.024 58.6513 122.959 59.8706Z" fill="white" fill-opacity="0.75"></path>
  <path d="M116.942 60.8743C116.767 62.2036 116.77 63.8899 117.802 64.9142C119.09 66.2356 121.087 65.9822 122.627 65.6927C124.695 65.304 127.023 63.8956 128.272 62.0194C126.75 61.1797 124.886 61.7146 123.378 62.1477L123.291 62.1725C121.608 62.6553 119.814 63.4337 118.313 64.4979C119.511 63.417 120.384 61.8305 120.428 60.2307C120.468 58.7994 119.848 57.2675 118.512 56.5841C117.577 57.8085 117.139 59.3812 116.942 60.8743Z" fill="white" fill-opacity="0.75"></path>
  <path d="M115.788 70.6126C114.136 70.5777 111.869 70.3806 110.945 68.6738L110.932 68.6504C110.194 67.2077 110.944 65.5215 111.542 64.2736C112.253 62.7901 113.224 61.2784 114.612 60.1934C115.944 61.3425 115.815 62.9853 115.418 64.4127C114.945 66.1101 113.311 67.5563 111.619 68.3796C113.578 67.6508 115.717 67.2141 117.752 67.0861L117.959 67.0729C119.594 66.9677 121.722 66.8309 123.023 68.0279C121.052 69.7005 118.254 70.6646 115.788 70.6126Z" fill="white" fill-opacity="0.75"></path>
</svg>
